<svg xmlns="http://www.w3.org/2000/svg" xmlns:xlink="http://www.w3.org/1999/xlink" viewBox="0 0 600 450"><defs><style>.cls-1,.cls-26,.cls-6{fill:none;}.cls-2{fill:#b3b3b3;}.cls-3{fill:#e6e6e6;}.cls-4{fill:#1a1a1a;}.cls-20,.cls-5{fill:#333;}.cls-6,.cls-7{stroke:#666;stroke-width:0.5px;}.cls-20,.cls-26,.cls-6,.cls-7{stroke-miterlimit:10;}.cls-7{fill:#f2f2f2;}.cls-8{fill:#ff931e;}.cls-9{fill:#ff7bac;}.cls-10{fill:#7ac943;}.cls-11{fill:#3fa9f5;}.cls-12{fill:#999;}.cls-13{fill:lime;}.cls-14{fill:#00f4aa;}.cls-15{fill:#ff1d25;}.cls-16{fill:#1b1464;}.cls-17,.cls-24{fill:#fff;}.cls-18{clip-path:url(#clip-path);}.cls-19{fill:#ccc;}.cls-20{stroke:#f2f2f2;stroke-width:0.13px;}.cls-21{clip-path:url(#clip-path-2);}.cls-22{clip-path:url(#clip-path-3);}.cls-23{fill:#666;}.cls-24{stroke:#999;stroke-linejoin:round;stroke-width:0.25px;}.cls-25{fill:#f7931e;}.cls-26{stroke:#1a1a1a;stroke-width:5px;}</style><clipPath id="clip-path"><polygon class="cls-1" points="2.07 450 602.07 0 602.07 450 2.07 450"/></clipPath><clipPath id="clip-path-2"><polygon class="cls-1" points="553.11 415.63 553.12 413.55 528.13 413.42 528.11 415.51 549.55 415.62 549.54 416.78 471.83 416.39 471.8 421.52 553.08 421.93 553.1 416.8 551.63 416.79 551.64 415.63 553.11 415.63"/></clipPath><clipPath id="clip-path-3"><polygon class="cls-1" points="476.95 432.87 476.94 434.95 501.94 435.08 501.94 432.99 480.51 432.88 480.51 431.72 558.23 432.11 558.26 426.98 476.98 426.57 476.95 431.7 478.43 431.71 478.42 432.87 476.95 432.87"/></clipPath></defs><title>aboutsvg</title><g id="atom"><rect class="cls-2" x="8.04" y="24.58" width="538.57" height="9.74"/><rect class="cls-3" x="8.04" y="9" width="538.57" height="15.35"/><rect class="cls-4" x="8.04" y="49.67" width="104.64" height="334.86"/><rect class="cls-5" x="112.68" y="49.67" width="433.92" height="334.86"/><line class="cls-6" x1="481.51" y1="16.61" x2="491.66" y2="16.61"/><line class="cls-6" x1="534.11" y1="20.26" x2="541.29" y2="13.09"/><line class="cls-6" x1="541.29" y1="20.26" x2="534.11" y2="13.09"/><rect class="cls-6" x="510.82" y="12.95" width="5.79" height="5.79"/><rect class="cls-7" x="509.17" y="14.61" width="5.79" height="5.79"/><rect class="cls-4" x="8.04" y="34.32" width="538.57" height="15.35"/><rect class="cls-8" x="124.54" y="63.97" width="73.34" height="6.3"/><rect class="cls-9" x="133.86" y="74.48" width="36.09" height="6.3"/><rect class="cls-10" x="173.43" y="74.48" width="36.09" height="6.3"/><rect class="cls-9" x="133.86" y="84.98" width="17.46" height="6.3"/><rect class="cls-11" x="154.81" y="84.98" width="10.48" height="6.3"/><rect class="cls-12" x="20.87" y="61.26" width="40.19" height="3.75"/><rect class="cls-12" x="27.43" y="68.24" width="18.28" height="3.75"/><rect class="cls-12" x="27.43" y="75.22" width="11.31" height="3.75"/><rect class="cls-12" x="33.31" y="82.19" width="12.4" height="3.75"/><rect class="cls-12" x="27.43" y="89.17" width="11.31" height="3.75"/><rect class="cls-12" x="27.43" y="96.14" width="9.91" height="3.75"/><rect class="cls-9" x="133.86" y="95.49" width="47.73" height="6.3"/><rect class="cls-10" x="185.08" y="95.49" width="31.43" height="6.3"/><rect class="cls-9" x="133.86" y="267.1" width="47.73" height="6.3"/><rect class="cls-10" x="185.08" y="267.1" width="31.43" height="6.3"/><rect class="cls-9" x="133.86" y="106" width="29.1" height="6.3"/><rect class="cls-9" x="133.86" y="116.5" width="29.1" height="6.3"/><rect class="cls-9" x="133.86" y="127.01" width="36.09" height="6.3"/><rect class="cls-9" x="133.86" y="137.51" width="22.12" height="6.3"/><rect class="cls-9" x="133.86" y="148.02" width="43.07" height="6.3"/><rect class="cls-11" x="166.45" y="106" width="22.12" height="6.3"/><rect class="cls-11" x="180.42" y="148.02" width="22.12" height="6.3"/><rect class="cls-11" x="166.45" y="116.5" width="33.76" height="6.3"/><rect class="cls-13" x="159.47" y="137.51" width="33.76" height="6.3"/><rect class="cls-11" x="173.43" y="127.01" width="17.46" height="6.3"/><rect class="cls-14" x="194.39" y="127.01" width="17.46" height="6.3"/><rect class="cls-15" x="124.54" y="182.99" width="22.12" height="6.3"/><rect class="cls-9" x="133.86" y="193.49" width="36.09" height="6.3"/><rect x="173.43" y="193.49" width="19.79" height="6.3"/><rect class="cls-9" x="133.86" y="204" width="43.07" height="6.3"/><rect class="cls-14" x="180.42" y="204" width="22.12" height="6.3"/><rect class="cls-15" x="124.54" y="236.17" width="22.12" height="6.3"/><rect class="cls-15" x="150.15" y="236.17" width="22.12" height="6.3"/><rect class="cls-15" x="175.76" y="236.17" width="12.81" height="6.3"/><rect class="cls-9" x="133.86" y="246.68" width="36.09" height="6.3"/><rect class="cls-16" x="173.43" y="246.68" width="19.79" height="6.3"/><rect class="cls-9" x="133.86" y="257.19" width="19.79" height="6.3"/><rect class="cls-11" x="157.14" y="257.19" width="10.48" height="6.3"/><rect class="cls-11" x="171.11" y="257.19" width="10.48" height="6.3"/><rect class="cls-11" x="185.08" y="257.19" width="10.48" height="6.3"/></g><g id="separator"><polygon class="cls-17" points="0 450 600 0 600 450 0 450"/></g><g id="Identity_Stuff" data-name="Identity Stuff"><g class="cls-18"><rect class="cls-5" x="66.2" y="242.35" width="378.38" height="203.65"/><rect class="cls-17" x="66.2" y="257.3" width="1.83" height="0.61"/><path class="cls-17" d="M439.11,257.91h-3.63v-.61h3.63Zm-7.27,0H428.2v-.61h3.64Zm-7.28,0h-3.64v-.61h3.64Zm-7.27,0h-3.64v-.61h3.64Zm-7.28,0h-3.64v-.61H410Zm-7.28,0H399.1v-.61h3.63Zm-7.27,0h-3.64v-.61h3.64Zm-7.28,0h-3.64v-.61h3.64Zm-7.27,0h-3.64v-.61h3.64Zm-7.28,0H370v-.61h3.64Zm-7.28,0h-3.64v-.61h3.64Zm-7.27,0h-3.64v-.61h3.64Zm-7.28,0h-3.64v-.61h3.64Zm-7.28,0h-3.63v-.61h3.63Zm-7.27,0h-3.64v-.61h3.64Zm-7.28,0h-3.64v-.61H330Zm-7.27,0h-3.64v-.61h3.64Zm-7.28,0h-3.64v-.61h3.64Zm-7.28,0h-3.63v-.61h3.63Zm-7.27,0h-3.64v-.61h3.64Zm-7.28,0H290v-.61h3.64Zm-7.28,0h-3.63v-.61h3.63Zm-7.27,0H275.4v-.61H279Zm-7.28,0h-3.64v-.61h3.64Zm-7.27,0h-3.64v-.61h3.64Zm-7.28,0h-3.64v-.61h3.64Zm-7.28,0H246.3v-.61h3.63Zm-7.27,0H239v-.61h3.64Zm-7.28,0h-3.64v-.61h3.64Zm-7.27,0h-3.64v-.61h3.64Zm-7.28,0h-3.64v-.61h3.64Zm-7.28,0h-3.63v-.61h3.63Zm-7.27,0h-3.64v-.61h3.64Zm-7.28,0h-3.64v-.61H199Zm-7.28,0h-3.63v-.61h3.63Zm-7.27,0h-3.64v-.61h3.64Zm-7.28,0h-3.64v-.61h3.64Zm-7.27,0h-3.64v-.61h3.64Zm-7.28,0H159v-.61h3.64Zm-7.28,0h-3.63v-.61h3.63Zm-7.27,0h-3.64v-.61h3.64Zm-7.28,0h-3.64v-.61h3.64Zm-7.27,0h-3.64v-.61h3.64Zm-7.28,0H122.6v-.61h3.64Zm-7.28,0h-3.64v-.61H119Zm-7.27,0h-3.64v-.61h3.64Zm-7.28,0h-3.64v-.61h3.64Zm-7.28,0H93.5v-.61h3.63Zm-7.27,0H86.22v-.61h3.64Zm-7.28,0H78.94v-.61h3.64Zm-7.27,0H71.67v-.61h3.64Z"/><rect class="cls-17" x="442.75" y="257.3" width="1.83" height="0.61"/><circle class="cls-17" cx="75.89" cy="249.33" r="3.01"/><circle class="cls-17" cx="195.45" cy="249.33" r="3.01"/><circle class="cls-17" cx="315.02" cy="249.33" r="3.01"/><circle class="cls-17" cx="434.58" cy="249.33" r="3.01"/><rect class="cls-17" x="66.2" y="431.21" width="1.83" height="0.61"/><path class="cls-17" d="M439.11,431.21h-3.63v.61h3.63Zm-7.27,0H428.2v.61h3.64Zm-7.28,0h-3.64v.61h3.64Zm-7.27,0h-3.64v.61h3.64Zm-7.28,0h-3.64v.61H410Zm-7.28,0H399.1v.61h3.63Zm-7.27,0h-3.64v.61h3.64Zm-7.28,0h-3.64v.61h3.64Zm-7.27,0h-3.64v.61h3.64Zm-7.28,0H370v.61h3.64Zm-7.28,0h-3.64v.61h3.64Zm-7.27,0h-3.64v.61h3.64Zm-7.28,0h-3.64v.61h3.64Zm-7.28,0h-3.63v.61h3.63Zm-7.27,0h-3.64v.61h3.64Zm-7.28,0h-3.64v.61H330Zm-7.27,0h-3.64v.61h3.64Zm-7.28,0h-3.64v.61h3.64Zm-7.28,0h-3.63v.61h3.63Zm-7.27,0h-3.64v.61h3.64Zm-7.28,0H290v.61h3.64Zm-7.28,0h-3.63v.61h3.63Zm-7.27,0H275.4v.61H279Zm-7.28,0h-3.64v.61h3.64Zm-7.27,0h-3.64v.61h3.64Zm-7.28,0h-3.64v.61h3.64Zm-7.28,0H246.3v.61h3.63Zm-7.27,0H239v.61h3.64Zm-7.28,0h-3.64v.61h3.64Zm-7.27,0h-3.64v.61h3.64Zm-7.28,0h-3.64v.61h3.64Zm-7.28,0h-3.63v.61h3.63Zm-7.27,0h-3.64v.61h3.64Zm-7.28,0h-3.64v.61H199Zm-7.28,0h-3.63v.61h3.63Zm-7.27,0h-3.64v.61h3.64Zm-7.28,0h-3.64v.61h3.64Zm-7.27,0h-3.64v.61h3.64Zm-7.28,0H159v.61h3.64Zm-7.28,0h-3.63v.61h3.63Zm-7.27,0h-3.64v.61h3.64Zm-7.28,0h-3.64v.61h3.64Zm-7.27,0h-3.64v.61h3.64Zm-7.28,0H122.6v.61h3.64Zm-7.28,0h-3.64v.61H119Zm-7.27,0h-3.64v.61h3.64Zm-7.28,0h-3.64v.61h3.64Zm-7.28,0H93.5v.61h3.63Zm-7.27,0H86.22v.61h3.64Zm-7.28,0H78.94v.61h3.64Zm-7.27,0H71.67v.61h3.64Z"/><rect class="cls-17" x="442.75" y="431.21" width="1.83" height="0.61"/><circle class="cls-17" cx="75.89" cy="439.79" r="3.01"/><circle class="cls-17" cx="195.45" cy="439.79" r="3.01"/><circle class="cls-17" cx="315.02" cy="439.79" r="3.01"/><circle class="cls-17" cx="434.58" cy="439.79" r="3.01"/><path class="cls-14" d="M354,334.23c-.17,12.15,6.89,24.53,18.13,29.61A22.68,22.68,0,0,0,383.49,366c1.19-.11,1.2-2,0-1.87-6.51.58-12.88-2.34-17.59-6.69a31.2,31.2,0,0,1-10-23.19.94.94,0,0,0-1.88,0Z"/><path class="cls-14" d="M376.68,369.79a30.88,30.88,0,0,1-11.43-4.72,32.44,32.44,0,0,1-7.8-8.05c-4.87-6.8-8.6-15.55-8-24.08a8.7,8.7,0,0,1,2.52-6.07,4.64,4.64,0,0,1,5.92-.48c3.5,2.41,4,7.83,4.9,11.65,1.61,6.54,3.64,13.34,9,17.79a17.8,17.8,0,0,0,17,2.77c1.14-.37.65-2.18-.5-1.8-5.18,1.71-11.05,1.19-15.33-2.4-6.64-5.57-7.63-14.52-9.79-22.38-1-3.72-3.22-8.1-7.61-8.38-4.13-.27-7.06,3.48-7.79,7.17-.83,4.23,0,8.92,1.13,13a45.19,45.19,0,0,0,5.45,12,38.08,38.08,0,0,0,8.69,10,32,32,0,0,0,13.11,5.81c1.18.23,1.68-1.57.5-1.81Z"/><path class="cls-14" d="M388.32,351.43c-4.06.59-8.1-.05-10.77-3.4a26.1,26.1,0,0,1-4.83-10.74c-2-8.72-6.54-20.94-17.73-19.43a15.48,15.48,0,0,0-11.18,7.74c-2.61,4.64-3,10.24-2,15.39,1.16,5.92,4.14,11.32,7.25,16.42,1.62,2.67,3.21,5.42,5.07,7.94A23.26,23.26,0,0,0,375,375c1.2-.11,1.21-2,0-1.87a21.4,21.4,0,0,1-18.71-8.08,56.6,56.6,0,0,1-3.68-5.54c-3.06-4.84-6.17-9.81-8-15.28-1.67-5.1-2.15-10.81-.1-15.88,1.89-4.68,6.28-8.41,11.43-8.74s9,3.22,11.35,7.55,3,8.93,4.3,13.51a23,23,0,0,0,5.43,9.6c3.15,3.16,7.55,3.56,11.76,2.95,1.19-.18.69-2-.5-1.81Z"/><path class="cls-14" d="M351,368a149.93,149.93,0,0,1-10.84-21.09c-3.41-8.59-4-19.33,2.48-26.67,3.79-4.27,9.73-7.14,15.45-5.54a.94.94,0,0,0,.5-1.81c-10.58-3-20.42,6.53-22.34,16.35-1.87,9.63,1.9,18.55,6.14,27,2.18,4.32,4.51,8.58,7,12.74a.94.94,0,0,0,1.62-1Z"/><path class="cls-14" d="M392.84,346.34c-3.11,1-6.33.86-8.92-1.31a15.15,15.15,0,0,1-4.19-6.4c-.94-2.5-1.21-5.15-2-7.7a29.35,29.35,0,0,0-5.14-10.21,21.24,21.24,0,0,0-7.32-5.92c-1.08-.52-2,1.1-.95,1.62,6.61,3.16,10.45,9.89,12.08,16.8a40.32,40.32,0,0,0,1.95,7.1,15.92,15.92,0,0,0,4.7,6.43c3,2.31,6.71,2.53,10.24,1.4,1.15-.36.66-2.17-.5-1.81Z"/><path class="cls-14" d="M339.65,360c-2-5.13-3.86-10.35-5.44-15.65-1.4-4.7-2.71-9.48-1.83-14.4,1.54-8.61,8-15.73,15.76-19.34,1.09-.5.14-2.12-.94-1.62a30.18,30.18,0,0,0-14.75,14.58,24.26,24.26,0,0,0-2.25,9.8c0,4.19,1.23,8.28,2.44,12.25,1.52,5,3.27,10,5.21,14.88.44,1.11,2.25.63,1.8-.5Z"/><path class="cls-14" d="M353.52,308.84c8.39-2.29,17.25,2.64,21.59,9.78,2.7,4.45,4.5,9.56,6.33,14.41,1.45,3.83,2.68,7.75,6.66,9.66,1.08.52,2-1.1.95-1.62a9,9,0,0,1-4.28-4.52c-1.12-2.5-1.93-5.16-2.93-7.7-1.77-4.48-3.52-9.38-6.55-13.17a23.75,23.75,0,0,0-9-7.36A20.56,20.56,0,0,0,353,307a.94.94,0,0,0,.5,1.81Z"/><path class="cls-14" d="M328.24,338.9c-1-5.36-1.49-10.79.2-16.07a25.61,25.61,0,0,1,6.45-10.58,39.16,39.16,0,0,1,8.14-5.9,26.48,26.48,0,0,1,11.32-3c3.36-.22,7.62-.36,10.7,1.27,1.06.56,2-1.05.94-1.62-2.87-1.52-6.57-1.65-9.74-1.6a32.1,32.1,0,0,0-12.55,2.47c-7.27,3.23-13.56,9.23-16.45,16.67-2.39,6.15-2,12.44-.82,18.81.22,1.18,2,.68,1.81-.5Z"/><path class="cls-14" d="M369.26,306.77a32.14,32.14,0,0,1,11.86,14.93c.43,1.11,2.24.63,1.81-.5a34.36,34.36,0,0,0-12.73-16.05c-1-.68-1.93.94-.94,1.62Z"/><path class="cls-14" d="M383.43,327.2c1.47,5.31,4,10.59,9.4,12.75,1.12.45,1.61-1.36.5-1.81-4.73-1.89-6.83-6.86-8.09-11.43a.94.94,0,0,0-1.81.49Z"/><path class="cls-14" d="M327.79,346.65c2.21,6.66,3.92,13.52,6.49,20.05.44,1.11,2.25.63,1.81-.49-2.58-6.54-4.29-13.39-6.5-20.06-.38-1.14-2.19-.65-1.8.5Z"/><path class="cls-14" d="M340,364.36a34.47,34.47,0,0,1,3.28,8.12.93.93,0,0,0,1.8-.5,36,36,0,0,0-3.47-8.57.94.94,0,0,0-1.61.95Z"/><path class="cls-14" d="M342.38,380.29c7.64.15,11.11-8.43,11.11-8.43s4.16,4.45,7.51,6a22.63,22.63,0,0,0,11.25,1.86c1.2-.09,1.21-2,0-1.88a20.53,20.53,0,0,1-10.57-1.73,23.42,23.42,0,0,1-7.75-6.66c-.49-.62-1.34-.17-1.57.41-1.49,3.73-5.53,8.8-10,8.53-1.2-.07-1.2,1.81,0,1.88Z"/><path class="cls-14" d="M353.87,378c4.06,5.55,10.95,6.94,17.47,6.11,1.18-.15,1.2-2,0-1.88-5.76.74-12.2-.18-15.85-5.18-.71-1-2.34,0-1.62.95Z"/><rect class="cls-19" x="93.5" y="318.57" width="215.04" height="12.91"/><rect class="cls-19" x="177.02" y="341.57" width="131.52" height="5.2"/><rect class="cls-19" x="156.26" y="354.16" width="152.28" height="5.2"/><rect class="cls-19" x="201.76" y="366.75" width="106.77" height="5.2"/><path class="cls-14" d="M596.7,195.59,522.79,122a.87.87,0,0,0-.74-.25l-.12,0a1,1,0,0,0-.24,0H482.42a.94.94,0,0,0-.88.7c-4.55,15.66-17.8,26.19-33,26.19s-28.4-10.53-33-26.19a.93.93,0,0,0-.88-.7H375.47a1,1,0,0,0-.92.92l-73.25,73a1,1,0,0,0-.3.7,1,1,0,0,0,.26.73l36.2,40.89a.87.87,0,0,0,1.26.08l36.2-32.8V353.37a1,1,0,0,0,.92,1H522.16a1,1,0,0,0,.92-1V205.19l36.2,32.8a.88.88,0,0,0,1.26-.08L596.74,197a1.07,1.07,0,0,0,.26-.73A1,1,0,0,0,596.7,195.59Z"/><path class="cls-4" d="M447.51,209.07c-.17,12.3,7,24.84,18.35,30a23,23,0,0,0,11.46,2.17c1.21-.11,1.22-2,0-1.9-6.59.59-13-2.37-17.81-6.77a31.56,31.56,0,0,1-10.1-23.48,1,1,0,0,0-1.9,0Z"/><path class="cls-4" d="M470.42,245.07a31.4,31.4,0,0,1-11.56-4.77,32.6,32.6,0,0,1-7.9-8.16c-4.93-6.88-8.71-15.74-8.14-24.37a8.8,8.8,0,0,1,2.55-6.15,4.7,4.7,0,0,1,6-.49c3.55,2.45,4,7.93,5,11.8,1.62,6.62,3.68,13.5,9.14,18a18.07,18.07,0,0,0,17.25,2.8c1.15-.38.66-2.22-.5-1.83-5.26,1.73-11.2,1.21-15.53-2.43-6.72-5.64-7.73-14.7-9.91-22.66-1-3.76-3.26-8.2-7.71-8.48-4.17-.27-7.14,3.52-7.88,7.26-.84,4.28,0,9,1.14,13.18a45.55,45.55,0,0,0,5.52,12.13,38.65,38.65,0,0,0,8.79,10.1,32.4,32.4,0,0,0,13.28,5.88c1.19.24,1.7-1.59.5-1.83Z"/><path class="cls-4" d="M482.22,226.48c-4.12.6-8.21,0-10.91-3.43a26.45,26.45,0,0,1-4.89-10.88c-2-8.83-6.63-21.2-17.95-19.67a15.64,15.64,0,0,0-11.32,7.84c-2.64,4.69-3,10.36-2,15.57,1.17,6,4.19,11.46,7.33,16.63,1.65,2.7,3.25,5.49,5.13,8a23.56,23.56,0,0,0,21.11,9.8c1.21-.11,1.22-2,0-1.9a21.61,21.61,0,0,1-18.94-8.18,56.82,56.82,0,0,1-3.74-5.6c-3.09-4.91-6.24-9.94-8.06-15.48-1.69-5.16-2.17-10.94-.1-16.07,1.91-4.74,6.35-8.51,11.57-8.85s9.16,3.27,11.5,7.64,3,9,4.35,13.68a23.25,23.25,0,0,0,5.49,9.72c3.19,3.2,7.64,3.6,11.91,3,1.2-.17.69-2-.5-1.83Z"/><path class="cls-4" d="M444.39,243.22a151.93,151.93,0,0,1-11-21.35c-3.46-8.7-4.1-19.57,2.51-27,3.83-4.31,9.84-7.22,15.64-5.6a1,1,0,0,0,.5-1.83c-10.71-3-20.68,6.61-22.61,16.55-1.9,9.75,1.92,18.78,6.21,27.3q3.31,6.57,7.08,12.9a1,1,0,0,0,1.63-1Z"/><path class="cls-4" d="M486.79,221.34c-3.15,1-6.41.86-9-1.33a15.44,15.44,0,0,1-4.25-6.48c-.94-2.53-1.22-5.21-2-7.8a29.59,29.59,0,0,0-5.21-10.34,21.47,21.47,0,0,0-7.41-6c-1.09-.52-2.05,1.11-.95,1.64,6.69,3.2,10.58,10,12.22,17a41.37,41.37,0,0,0,2,7.19,16.13,16.13,0,0,0,4.75,6.51c3,2.34,6.8,2.56,10.38,1.42,1.15-.37.66-2.21-.51-1.83Z"/><path class="cls-4" d="M432.94,235.16c-2.06-5.2-3.91-10.49-5.51-15.85-1.42-4.76-2.74-9.6-1.85-14.59,1.56-8.7,8.07-15.92,15.95-19.57,1.11-.51.15-2.15-.95-1.64a30.57,30.57,0,0,0-14.93,14.76,24.68,24.68,0,0,0-2.28,9.92c0,4.25,1.25,8.38,2.47,12.4,1.54,5.1,3.31,10.12,5.27,15.07.45,1.12,2.28.63,1.83-.5Z"/><path class="cls-4" d="M447,183.36c8.49-2.31,17.46,2.68,21.86,9.91,2.73,4.5,4.56,9.68,6.41,14.59,1.46,3.88,2.71,7.84,6.74,9.78,1.09.52,2.06-1.11,1-1.64a9.07,9.07,0,0,1-4.33-4.58c-1.14-2.53-2-5.22-3-7.8-1.79-4.53-3.56-9.49-6.63-13.33a24,24,0,0,0-9.09-7.44,20.72,20.72,0,0,0-13.45-1.31.94.94,0,0,0,.5,1.82Z"/><path class="cls-4" d="M421.39,213.8c-1-5.43-1.52-10.93.2-16.27a26,26,0,0,1,6.53-10.71,39.48,39.48,0,0,1,8.24-6,26.81,26.81,0,0,1,11.46-3c3.4-.22,7.71-.36,10.83,1.29,1.08.57,2-1.07,1-1.64-2.91-1.54-6.65-1.67-9.87-1.63a32.69,32.69,0,0,0-12.7,2.51c-7.36,3.27-13.73,9.34-16.66,16.87-2.42,6.23-2,12.6-.82,19,.22,1.2,2,.69,1.83-.5Z"/><path class="cls-4" d="M462.91,181.27a32.54,32.54,0,0,1,12,15.12c.44,1.13,2.27.64,1.83-.51a34.79,34.79,0,0,0-12.88-16.25c-1-.69-2,1-1,1.64Z"/><path class="cls-4" d="M477.26,202c1.49,5.37,4.05,10.72,9.52,12.9,1.13.46,1.63-1.38.5-1.83-4.79-1.91-6.91-6.94-8.19-11.58a1,1,0,0,0-1.83.51Z"/><path class="cls-4" d="M420.93,221.65c2.23,6.74,4,13.68,6.57,20.3.45,1.12,2.28.63,1.83-.5-2.61-6.62-4.34-13.56-6.57-20.31-.39-1.15-2.22-.66-1.83.51Z"/><path class="cls-4" d="M433.3,239.57a35,35,0,0,1,3.32,8.23,1,1,0,0,0,1.83-.5,36.74,36.74,0,0,0-3.51-8.68,1,1,0,0,0-1.64.95Z"/><path class="cls-4" d="M435.7,255.7c7.73.15,11.25-8.53,11.25-8.53s4.21,4.51,7.61,6.09A22.81,22.81,0,0,0,466,255.14c1.21-.09,1.22-2,0-1.89a20.94,20.94,0,0,1-10.71-1.75,23.83,23.83,0,0,1-7.85-6.76c-.49-.61-1.35-.16-1.58.42-1.51,3.78-5.6,8.91-10.11,8.64-1.22-.07-1.21,1.83,0,1.9Z"/><path class="cls-4" d="M447.33,253.33c4.12,5.62,11.09,7,17.69,6.19,1.2-.15,1.21-2,0-1.9-5.83.75-12.35-.19-16-5.25-.71-1-2.36,0-1.64,1Z"/><rect class="cls-4" x="457.75" y="257.07" width="124.36" height="145.99"/><rect class="cls-19" x="449.63" y="248.96" width="124.36" height="145.99" rx="6.06" ry="6.06"/><rect class="cls-20" x="499.49" y="334.45" width="58.29" height="34.24" rx="6.06" ry="6.06"/><path class="cls-14" d="M466.82,267.52a10.21,10.21,0,0,0,5.69,9.31,7.17,7.17,0,0,0,3.56.67c.38,0,.38-.62,0-.59a7.36,7.36,0,0,1-5.53-2.1,9.82,9.82,0,0,1-3.13-7.29.3.3,0,0,0-.59,0Z"/><path class="cls-14" d="M473.93,278.7a9.76,9.76,0,0,1-3.59-1.48,10.2,10.2,0,0,1-2.45-2.54,12.19,12.19,0,0,1-2.53-7.56,2.75,2.75,0,0,1,.79-1.91,1.46,1.46,0,0,1,1.86-.15c1.11.76,1.25,2.46,1.55,3.66.5,2.06,1.14,4.19,2.83,5.59a5.61,5.61,0,0,0,5.36.87c.36-.12.2-.68-.16-.57a5,5,0,0,1-4.82-.75c-2.08-1.75-2.4-4.56-3.07-7-.33-1.17-1-2.55-2.4-2.64a2.57,2.57,0,0,0-2.44,2.26,9.16,9.16,0,0,0,.35,4.09,14.57,14.57,0,0,0,1.71,3.77,12.22,12.22,0,0,0,2.73,3.13,10.14,10.14,0,0,0,4.12,1.83c.37.07.53-.5.16-.57Z"/><path class="cls-14" d="M477.59,272.93a3.45,3.45,0,0,1-3.38-1.07,8.12,8.12,0,0,1-1.52-3.37c-.63-2.75-2.06-6.59-5.57-6.11a4.86,4.86,0,0,0-3.52,2.43,7.11,7.11,0,0,0-.61,4.84,16.2,16.2,0,0,0,2.27,5.16c.51.84,1,1.7,1.6,2.49a7.28,7.28,0,0,0,6.55,3c.37,0,.38-.62,0-.59a6.7,6.7,0,0,1-5.88-2.54,15.94,15.94,0,0,1-1.16-1.74,21.92,21.92,0,0,1-2.5-4.8,7.26,7.26,0,0,1,0-5,4.32,4.32,0,0,1,3.59-2.75,3.9,3.9,0,0,1,3.57,2.38,21.58,21.58,0,0,1,1.35,4.24,7.2,7.2,0,0,0,1.7,3,4.18,4.18,0,0,0,3.7.93c.37-.06.21-.63-.16-.57Z"/><path class="cls-14" d="M465.85,278.12a47,47,0,0,1-3.4-6.62c-1.08-2.7-1.27-6.08.78-8.39a4.93,4.93,0,0,1,4.85-1.74.3.3,0,0,0,.16-.57c-3.33-.93-6.42,2.06-7,5.14s.59,5.83,1.93,8.48q1,2,2.19,4a.3.3,0,0,0,.51-.3Z"/><path class="cls-14" d="M479,271.33a2.85,2.85,0,0,1-2.8-.41,4.77,4.77,0,0,1-1.32-2c-.29-.79-.38-1.62-.61-2.43a9.22,9.22,0,0,0-1.62-3.2,6.59,6.59,0,0,0-2.3-1.86c-.34-.16-.64.34-.3.51a7.53,7.53,0,0,1,3.8,5.28,13.39,13.39,0,0,0,.61,2.23,5,5,0,0,0,1.48,2,3.45,3.45,0,0,0,3.22.44c.36-.12.2-.69-.16-.57Z"/><path class="cls-14" d="M462.3,275.62c-.64-1.61-1.22-3.25-1.71-4.92a9.88,9.88,0,0,1-.58-4.53A8.64,8.64,0,0,1,465,260.1c.35-.16.05-.67-.29-.51a9.48,9.48,0,0,0-4.64,4.58,7.45,7.45,0,0,0-.7,3.08,13,13,0,0,0,.76,3.85q.72,2.37,1.64,4.68c.14.34.71.19.57-.16Z"/><path class="cls-14" d="M466.65,259.54a6.34,6.34,0,0,1,6.79,3.08,27.3,27.3,0,0,1,2,4.53c.45,1.2.84,2.43,2.09,3,.34.17.64-.34.3-.51a2.83,2.83,0,0,1-1.35-1.42c-.35-.78-.6-1.62-.92-2.42a16,16,0,0,0-2.05-4.14,7.47,7.47,0,0,0-2.83-2.31,6.44,6.44,0,0,0-4.17-.4.29.29,0,0,0,.15.56Z"/><path class="cls-14" d="M458.71,269a10.28,10.28,0,0,1,.06-5.05,8,8,0,0,1,2-3.32,12.06,12.06,0,0,1,2.56-1.86,8.44,8.44,0,0,1,3.55-.93,6.77,6.77,0,0,1,3.37.4c.33.18.63-.33.29-.5a6.51,6.51,0,0,0-3.06-.51,10,10,0,0,0-3.94.78,9.78,9.78,0,0,0-5.17,5.24,10.7,10.7,0,0,0-.26,5.91c.07.37.64.21.57-.16Z"/><path class="cls-14" d="M471.6,258.89a10.16,10.16,0,0,1,3.73,4.7c.13.35.7.19.57-.16a10.92,10.92,0,0,0-4-5.05c-.32-.21-.61.3-.3.51Z"/><path class="cls-14" d="M476.05,265.32c.46,1.66,1.26,3.32,3,4,.35.14.5-.43.15-.57-1.48-.59-2.14-2.15-2.54-3.59a.3.3,0,0,0-.57.16Z"/><path class="cls-14" d="M458.57,271.43c.69,2.09,1.23,4.24,2,6.3.14.35.71.2.57-.16-.81-2.05-1.35-4.21-2.05-6.3-.11-.36-.68-.21-.56.16Z"/><path class="cls-14" d="M462.41,277a11.26,11.26,0,0,1,1,2.55.29.29,0,0,0,.57-.15,11.75,11.75,0,0,0-1.09-2.7.3.3,0,0,0-.51.3Z"/><path class="cls-14" d="M463.15,282c2.4,0,3.49-2.65,3.49-2.65a10.22,10.22,0,0,0,2.37,1.89,7.13,7.13,0,0,0,3.53.58c.38,0,.38-.61,0-.58a6.52,6.52,0,0,1-3.32-.55,7.33,7.33,0,0,1-2.44-2.09c-.15-.2-.42-.05-.49.13-.47,1.17-1.74,2.76-3.14,2.68-.37,0-.37.56,0,.59Z"/><path class="cls-14" d="M466.76,281.26a5.65,5.65,0,0,0,5.49,1.92c.38-.05.38-.63,0-.59-1.81.24-3.83-.06-5-1.63-.22-.3-.73,0-.51.3Z"/><path class="cls-14" d="M509.7,350.34a4.63,4.63,0,0,0,2.59,4.24,3.24,3.24,0,0,0,1.62.31c.18,0,.18-.29,0-.27a3.36,3.36,0,0,1-2.51-1,4.46,4.46,0,0,1-1.43-3.32.14.14,0,0,0-.27,0Z"/><path class="cls-14" d="M512.94,355.43a4.28,4.28,0,0,1-1.64-.67,4.71,4.71,0,0,1-1.11-1.16,5.52,5.52,0,0,1-1.16-3.44,1.32,1.32,0,0,1,.36-.87.67.67,0,0,1,.85-.07c.5.34.57,1.12.71,1.67a4.5,4.5,0,0,0,1.29,2.54,2.55,2.55,0,0,0,2.44.4c.16-.05.09-.31-.07-.26a2.28,2.28,0,0,1-2.2-.34c-.95-.8-1.09-2.08-1.4-3.21-.15-.53-.46-1.16-1.09-1.2a1.19,1.19,0,0,0-1.12,1,4.24,4.24,0,0,0,.17,1.87,6.44,6.44,0,0,0,.78,1.71,5.31,5.31,0,0,0,1.24,1.43,4.49,4.49,0,0,0,1.88.83c.17,0,.24-.22.07-.26Z"/><path class="cls-14" d="M514.61,352.8a1.57,1.57,0,0,1-1.55-.48,3.83,3.83,0,0,1-.69-1.54c-.28-1.25-.93-3-2.54-2.78a2.2,2.2,0,0,0-1.6,1.11,3.27,3.27,0,0,0-.28,2.2,7.51,7.51,0,0,0,1,2.35c.23.38.46.78.73,1.14a3.32,3.32,0,0,0,3,1.38c.17,0,.17-.28,0-.27a3,3,0,0,1-2.68-1.15,8.52,8.52,0,0,1-.53-.8,10.52,10.52,0,0,1-1.14-2.18,3.37,3.37,0,0,1,0-2.28,2,2,0,0,1,1.64-1.25,1.76,1.76,0,0,1,1.62,1.08,9.33,9.33,0,0,1,.62,1.94,3.33,3.33,0,0,0,.77,1.37,1.91,1.91,0,0,0,1.69.42c.17,0,.1-.28-.07-.26Z"/><path class="cls-14" d="M509.26,355.17a20.49,20.49,0,0,1-1.55-3,3.7,3.7,0,0,1,.35-3.82,2.24,2.24,0,0,1,2.21-.79.14.14,0,0,0,.08-.26c-1.52-.42-2.93.93-3.2,2.34a6,6,0,0,0,.87,3.86c.32.62.65,1.23,1,1.83.08.14.32,0,.23-.14Z"/><path class="cls-14" d="M515.25,352.08a1.29,1.29,0,0,1-1.27-.19,2.08,2.08,0,0,1-.6-.92,11.09,11.09,0,0,1-.28-1.1,4.2,4.2,0,0,0-.74-1.46,2.88,2.88,0,0,0-1.05-.85c-.15-.08-.29.16-.13.23a3.49,3.49,0,0,1,1.73,2.41,5,5,0,0,0,.28,1,2.2,2.2,0,0,0,.67.92,1.54,1.54,0,0,0,1.47.2c.16-.05.09-.31-.08-.25Z"/><path class="cls-14" d="M507.64,354c-.29-.74-.56-1.48-.78-2.24a4.4,4.4,0,0,1-.26-2.06,3.9,3.9,0,0,1,2.25-2.77c.16-.08,0-.31-.13-.23a4.27,4.27,0,0,0-2.11,2.08,3.6,3.6,0,0,0-.33,1.41,6.18,6.18,0,0,0,.35,1.75q.33,1.08.75,2.13c.06.16.32.09.26-.07Z"/><path class="cls-14" d="M509.62,346.7a2.89,2.89,0,0,1,3.09,1.41,11.51,11.51,0,0,1,.91,2.06,2.15,2.15,0,0,0,1,1.38c.15.08.29-.15.13-.23a1.25,1.25,0,0,1-.61-.65c-.16-.35-.28-.74-.42-1.1a7.11,7.11,0,0,0-.94-1.89,3.43,3.43,0,0,0-1.28-1.05,2.93,2.93,0,0,0-1.91-.18.13.13,0,0,0,.07.25Z"/><path class="cls-14" d="M506,351a4.71,4.71,0,0,1,0-2.3,3.77,3.77,0,0,1,.92-1.52,5.69,5.69,0,0,1,1.17-.84,3.68,3.68,0,0,1,1.62-.42,2.85,2.85,0,0,1,1.53.18c.16.08.29-.15.14-.23a2.9,2.9,0,0,0-1.4-.23,4.57,4.57,0,0,0-1.79.35,4.49,4.49,0,0,0-2.36,2.39,4.92,4.92,0,0,0-.12,2.69c0,.17.29.1.26-.07Z"/><path class="cls-14" d="M511.88,346.41a4.66,4.66,0,0,1,1.7,2.14c.06.16.32.09.25-.07a4.86,4.86,0,0,0-1.82-2.3c-.14-.1-.27.13-.13.23Z"/><path class="cls-14" d="M513.91,349.33a2.52,2.52,0,0,0,1.34,1.83c.16.06.23-.2.07-.26a2.26,2.26,0,0,1-1.15-1.64c0-.16-.31-.09-.26.07Z"/><path class="cls-14" d="M505.94,352.12c.31.95.56,1.94.93,2.87.06.16.32.09.26-.07-.37-.94-.62-1.92-.93-2.87-.06-.17-.32-.1-.26.07Z"/><path class="cls-14" d="M507.69,354.66a5.13,5.13,0,0,1,.47,1.16c0,.17.3.09.26-.07a5.48,5.48,0,0,0-.5-1.23.13.13,0,0,0-.23.14Z"/><path class="cls-14" d="M508,356.94c1.09,0,1.59-1.21,1.59-1.21a4.42,4.42,0,0,0,1.08.86,3.18,3.18,0,0,0,1.61.27c.17,0,.17-.28,0-.27a2.93,2.93,0,0,1-1.52-.25,3.49,3.49,0,0,1-1.11-.95c-.07-.09-.19,0-.22.06-.22.53-.79,1.26-1.43,1.22-.17,0-.17.26,0,.27Z"/><path class="cls-14" d="M509.67,356.6a2.57,2.57,0,0,0,2.51.88c.16,0,.17-.29,0-.27a2.38,2.38,0,0,1-2.28-.74c-.1-.14-.33,0-.23.13Z"/><rect class="cls-19" x="517.22" y="348.99" width="25.23" height="1.8"/><rect class="cls-5" x="484.47" y="266.45" width="74.88" height="5.78"/><rect class="cls-19" x="517.22" y="351.69" width="15.32" height="0.9"/><rect class="cls-14" x="553.09" y="416.82" width="7.59" height="5.13" transform="translate(2.13 -2.81) rotate(0.29)"/><polygon class="cls-4" points="553.11 415.63 553.12 413.55 528.13 413.42 528.11 415.51 549.55 415.62 549.54 416.78 471.83 416.39 471.8 421.52 553.08 421.93 553.1 416.8 551.63 416.79 551.64 415.63 553.11 415.63"/><polygon class="cls-14" points="471.82 418.95 471.82 421.52 467.97 420.24 464.12 418.95 467.97 417.67 471.82 416.39 471.82 418.95"/><g class="cls-21"><path class="cls-14" d="M490.21,418.4a2.31,2.31,0,0,0,1.27,2.1,1.74,1.74,0,0,0,.8.16.07.07,0,0,0,0-.14A1.66,1.66,0,0,1,491,420a2.2,2.2,0,0,1-.69-1.64c0-.08-.13-.08-.14,0Z"/><path class="cls-14" d="M491.8,420.92a2.11,2.11,0,0,1-.8-.34,2.13,2.13,0,0,1-.55-.57,2.69,2.69,0,0,1-.56-1.7.62.62,0,0,1,.18-.43.32.32,0,0,1,.42,0c.24.17.27.55.34.82a2.17,2.17,0,0,0,.63,1.26,1.24,1.24,0,0,0,1.2.21c.08,0,0-.16,0-.13a1.11,1.11,0,0,1-1.08-.18,2.84,2.84,0,0,1-.69-1.58c-.07-.26-.22-.58-.53-.6a.6.6,0,0,0-.56.51,2.05,2.05,0,0,0,.08.92,3.08,3.08,0,0,0,.38.85,2.72,2.72,0,0,0,.61.7,2.25,2.25,0,0,0,.93.42c.08,0,.11-.11,0-.13Z"/><path class="cls-14" d="M492.63,419.63a.79.79,0,0,1-.76-.24,2,2,0,0,1-.34-.77c-.14-.61-.45-1.48-1.24-1.38a1.14,1.14,0,0,0-.8.55,1.62,1.62,0,0,0-.14,1.08,3.59,3.59,0,0,0,.51,1.17,6.53,6.53,0,0,0,.35.56,1.64,1.64,0,0,0,1.47.69c.09,0,.09-.14,0-.13a1.54,1.54,0,0,1-1.32-.58c-.09-.12-.17-.26-.26-.39a5,5,0,0,1-.55-1.08,1.63,1.63,0,0,1,0-1.13,1,1,0,0,1,.81-.61.89.89,0,0,1,.8.54,5.24,5.24,0,0,1,.3.95,1.48,1.48,0,0,0,.38.68.93.93,0,0,0,.83.22c.08,0,0-.14,0-.13Z"/><path class="cls-14" d="M490,420.78a9.08,9.08,0,0,1-.76-1.49,1.82,1.82,0,0,1,.18-1.88,1.11,1.11,0,0,1,1.1-.39c.08,0,.11-.1,0-.13A1.38,1.38,0,0,0,489,418a2.94,2.94,0,0,0,.42,1.91c.15.3.32.61.49.9a.07.07,0,0,0,.12-.07Z"/><path class="cls-14" d="M493,419.27a.65.65,0,0,1-.63-.09,1.06,1.06,0,0,1-.29-.46,5.36,5.36,0,0,1-.14-.54,2.08,2.08,0,0,0-.36-.73A1.6,1.6,0,0,0,491,417c-.08,0-.15.08-.07.12a1.67,1.67,0,0,1,.85,1.19,2.83,2.83,0,0,0,.13.5,1.26,1.26,0,0,0,.33.46.79.79,0,0,0,.73.1.07.07,0,0,0,0-.13Z"/><path class="cls-14" d="M489.19,420.22c-.14-.37-.27-.74-.38-1.11a2.09,2.09,0,0,1-.12-1,1.9,1.9,0,0,1,1.12-1.36c.07,0,0-.15-.07-.11a2.13,2.13,0,0,0-1.05,1,1.66,1.66,0,0,0-.16.69,2.86,2.86,0,0,0,.17.87c.1.35.23.71.36,1.05,0,.08.16.05.13,0Z"/><path class="cls-14" d="M490.19,416.61a1.42,1.42,0,0,1,1.52.7,5.81,5.81,0,0,1,.44,1,1,1,0,0,0,.47.68c.07,0,.14-.08.07-.11a.74.74,0,0,1-.31-.32c-.07-.18-.13-.37-.2-.55a3.23,3.23,0,0,0-.46-.93,1.59,1.59,0,0,0-.63-.52,1.45,1.45,0,0,0-.94-.1c-.08,0,0,.15,0,.13Z"/><path class="cls-14" d="M488.39,418.72a2.27,2.27,0,0,1,0-1.13,1.82,1.82,0,0,1,.46-.75,2.64,2.64,0,0,1,.58-.41,1.83,1.83,0,0,1,.8-.21,1.48,1.48,0,0,1,.75.1c.08,0,.15-.08.07-.12a1.34,1.34,0,0,0-.69-.11,2.11,2.11,0,0,0-.89.17,2.15,2.15,0,0,0-1.16,1.17,2.32,2.32,0,0,0-.07,1.33c0,.08.14.05.13,0Z"/><path class="cls-14" d="M491.3,416.47a2.23,2.23,0,0,1,.83,1.06c0,.07.16,0,.13,0a2.51,2.51,0,0,0-.89-1.14c-.07-.05-.14.07-.07.12Z"/><path class="cls-14" d="M492.29,417.92a1.26,1.26,0,0,0,.66.9c.08,0,.12-.1,0-.13a1.13,1.13,0,0,1-.57-.81c0-.08-.15-.05-.13,0Z"/><path class="cls-14" d="M488.35,419.27c.16.47.28,1,.46,1.42,0,.08.16,0,.12,0-.18-.46-.29-.94-.45-1.41a.07.07,0,0,0-.13,0Z"/><path class="cls-14" d="M489.21,420.53a2.35,2.35,0,0,1,.23.57c0,.08.15,0,.13,0a3,3,0,0,0-.24-.61c0-.08-.16,0-.12.07Z"/><path class="cls-14" d="M489.37,421.65c.54,0,.79-.59.79-.59a2.19,2.19,0,0,0,.53.43,1.56,1.56,0,0,0,.8.13.07.07,0,0,0,0-.13,1.47,1.47,0,0,1-.75-.12,1.69,1.69,0,0,1-.55-.48s-.09,0-.11,0c-.1.26-.39.62-.71.6-.08,0-.08.13,0,.13Z"/><path class="cls-14" d="M490.19,421.49a1.27,1.27,0,0,0,1.23.44c.08,0,.08-.14,0-.13a1.15,1.15,0,0,1-1.12-.38c-.05-.06-.16,0-.11.07Z"/></g><rect class="cls-19" x="494.21" y="418.72" width="31.45" height="0.86" transform="translate(2.13 -2.57) rotate(0.29)"/><rect class="cls-14" x="469.38" y="426.55" width="7.59" height="5.13" transform="translate(944.17 860.62) rotate(-179.71)"/><polygon class="cls-4" points="476.95 432.87 476.94 434.95 501.94 435.08 501.94 432.99 480.51 432.88 480.51 431.72 558.23 432.11 558.26 426.98 476.98 426.57 476.95 431.7 478.43 431.71 478.42 432.87 476.95 432.87"/><polygon class="cls-14" points="558.23 429.55 558.23 426.98 562.09 428.26 565.94 429.55 562.09 430.83 558.23 432.11 558.23 429.55"/><g class="cls-22"><path class="cls-14" d="M539.84,430.1a2.27,2.27,0,0,0-1.27-2.1,1.67,1.67,0,0,0-.79-.16c-.09,0-.09.14,0,.14a1.67,1.67,0,0,1,1.25.48,2.2,2.2,0,0,1,.69,1.64.07.07,0,0,0,.13,0Z"/><path class="cls-14" d="M538.26,427.58a2.11,2.11,0,0,1,.8.34,2.13,2.13,0,0,1,.55.57,2.75,2.75,0,0,1,.56,1.7.62.62,0,0,1-.18.43.32.32,0,0,1-.42,0c-.24-.17-.27-.55-.34-.82a2.17,2.17,0,0,0-.63-1.26,1.24,1.24,0,0,0-1.2-.21c-.08,0,0,.16,0,.13a1.11,1.11,0,0,1,1.08.18,2.84,2.84,0,0,1,.69,1.58c.07.26.22.58.53.6a.58.58,0,0,0,.55-.51,2,2,0,0,0-.07-.92,3.08,3.08,0,0,0-.38-.85,2.72,2.72,0,0,0-.61-.7,2.25,2.25,0,0,0-.93-.42.07.07,0,0,0,0,.13Z"/><path class="cls-14" d="M537.43,428.87a.79.79,0,0,1,.76.24,2,2,0,0,1,.34.77c.14.61.45,1.48,1.24,1.38a1.11,1.11,0,0,0,.79-.55,1.56,1.56,0,0,0,.15-1.08,3.59,3.59,0,0,0-.51-1.17,6.53,6.53,0,0,0-.35-.56,1.64,1.64,0,0,0-1.47-.69c-.09,0-.09.14,0,.13a1.54,1.54,0,0,1,1.32.58c.09.12.17.26.25.39a4.62,4.62,0,0,1,.56,1.08,1.63,1.63,0,0,1,0,1.13,1,1,0,0,1-.81.61.88.88,0,0,1-.8-.54,5.24,5.24,0,0,1-.3-.95,1.48,1.48,0,0,0-.38-.68.93.93,0,0,0-.83-.22c-.08,0,0,.14,0,.13Z"/><path class="cls-14" d="M540.07,427.72a9.08,9.08,0,0,1,.76,1.49,1.82,1.82,0,0,1-.18,1.88,1.11,1.11,0,0,1-1.1.39c-.08,0-.11.1,0,.13a1.38,1.38,0,0,0,1.58-1.15,2.94,2.94,0,0,0-.42-1.91c-.15-.3-.32-.61-.49-.9a.07.07,0,0,0-.12.07Z"/><path class="cls-14" d="M537.11,429.23a.65.65,0,0,1,.63.09,1.06,1.06,0,0,1,.29.46c.07.18.08.36.14.54a2.08,2.08,0,0,0,.36.73,1.49,1.49,0,0,0,.51.42c.08,0,.15-.08.07-.12a1.67,1.67,0,0,1-.85-1.19,2.83,2.83,0,0,0-.13-.5,1.26,1.26,0,0,0-.33-.46.79.79,0,0,0-.73-.1.07.07,0,0,0,0,.13Z"/><path class="cls-14" d="M540.87,428.28c.14.37.27.74.38,1.11a2.09,2.09,0,0,1,.12,1,1.9,1.9,0,0,1-1.12,1.36c-.07,0,0,.15.07.11a2.13,2.13,0,0,0,1-1,1.66,1.66,0,0,0,.16-.69,2.86,2.86,0,0,0-.17-.87c-.1-.35-.23-.71-.36-1.05,0-.08-.16-.05-.13,0Z"/><path class="cls-14" d="M539.87,431.89a1.42,1.42,0,0,1-1.52-.7,5.81,5.81,0,0,1-.44-1,1,1,0,0,0-.47-.68c-.07,0-.14.08-.07.11a.66.66,0,0,1,.3.32c.08.18.14.37.21.55a3.23,3.23,0,0,0,.46.93,1.59,1.59,0,0,0,.63.52,1.45,1.45,0,0,0,.94.1c.08,0,.05-.15,0-.13Z"/><path class="cls-14" d="M541.67,429.78a2.27,2.27,0,0,1,0,1.13,1.82,1.82,0,0,1-.46.75,2.64,2.64,0,0,1-.58.41,1.83,1.83,0,0,1-.8.21,1.46,1.46,0,0,1-.75-.1c-.08,0-.15.08-.07.12a1.34,1.34,0,0,0,.69.11,2.11,2.11,0,0,0,.89-.17,2.15,2.15,0,0,0,1.16-1.17,2.41,2.41,0,0,0,.07-1.33c0-.08-.14-.05-.13,0Z"/><path class="cls-14" d="M538.76,432a2.23,2.23,0,0,1-.83-1.06c0-.07-.16,0-.13,0a2.44,2.44,0,0,0,.89,1.14c.07.05.14-.07.07-.12Z"/><path class="cls-14" d="M537.77,430.58a1.26,1.26,0,0,0-.66-.9c-.08,0-.12.1,0,.13a1.13,1.13,0,0,1,.57.81c0,.08.15.05.13,0Z"/><path class="cls-14" d="M541.7,429.23c-.15-.47-.27-1-.45-1.42,0-.08-.16,0-.12,0,.17.46.29.94.45,1.41a.06.06,0,1,0,.12,0Z"/><path class="cls-14" d="M540.85,428a2.35,2.35,0,0,1-.23-.57c0-.08-.15,0-.13,0a3,3,0,0,0,.24.61c0,.08.16,0,.12-.07Z"/><path class="cls-14" d="M540.69,426.85c-.54,0-.79.59-.79.59a2.19,2.19,0,0,0-.53-.43,1.58,1.58,0,0,0-.8-.13.07.07,0,0,0,0,.13,1.47,1.47,0,0,1,.75.12,1.69,1.69,0,0,1,.55.48s.09,0,.11,0c.1-.26.39-.62.7-.6.09,0,.09-.13,0-.13Z"/><path class="cls-14" d="M539.87,427a1.27,1.27,0,0,0-1.23-.44c-.08,0-.08.14,0,.13a1.15,1.15,0,0,1,1.12.38c0,.06.16,0,.11-.07Z"/></g><rect class="cls-19" x="504.4" y="428.93" width="31.45" height="0.86" transform="translate(1038.08 861.33) rotate(-179.71)"/><rect class="cls-4" x="533.42" y="63.4" width="53.2" height="102.58" rx="4.11" ry="4.11"/><rect class="cls-17" x="536.91" y="70.14" width="46.21" height="83.84" rx="4.11" ry="4.11"/><circle class="cls-12" cx="560.01" cy="160.13" r="3.23"/><path class="cls-23" d="M579.55,70.14H540.48c-2,0-3.57,1.27-3.57,2.84V84.9h46.21V73C583.12,71.41,581.52,70.14,579.55,70.14Z"/><circle class="cls-19" cx="542.19" cy="84.76" r="4.49"/><path class="cls-14" d="M541.76,84.11a2.44,2.44,0,0,0,1.36,2.22,1.68,1.68,0,0,0,.85.16c.09,0,.1-.15,0-.14a1.74,1.74,0,0,1-1.32-.5,2.34,2.34,0,0,1-.75-1.74c0-.09-.14-.09-.14,0Z"/><path class="cls-14" d="M543.46,86.78a2.36,2.36,0,0,1-.85-.35,2.28,2.28,0,0,1-.59-.61,2.84,2.84,0,0,1-.6-1.81.65.65,0,0,1,.18-.45.35.35,0,0,1,.45,0c.26.18.3.59.37.87a2.31,2.31,0,0,0,.68,1.34,1.33,1.33,0,0,0,1.28.21.07.07,0,0,0,0-.14,1.19,1.19,0,0,1-1.15-.18,3,3,0,0,1-.74-1.68c-.08-.28-.24-.61-.57-.63a.62.62,0,0,0-.59.54,2.18,2.18,0,0,0,.09,1,3.33,3.33,0,0,0,.41.9,2.93,2.93,0,0,0,.65.75,2.53,2.53,0,0,0,1,.44c.08,0,.12-.12,0-.14Z"/><path class="cls-14" d="M544.34,85.4a.81.81,0,0,1-.81-.25,1.91,1.91,0,0,1-.36-.81c-.15-.66-.5-1.57-1.34-1.46a1.18,1.18,0,0,0-.84.58,1.72,1.72,0,0,0-.14,1.16,3.76,3.76,0,0,0,.54,1.23c.12.2.24.41.38.6a1.76,1.76,0,0,0,1.57.72c.09,0,.09-.15,0-.14a1.61,1.61,0,0,1-1.41-.61,2.9,2.9,0,0,1-.27-.41,5,5,0,0,1-.6-1.15,1.74,1.74,0,0,1,0-1.19,1,1,0,0,1,.86-.66.92.92,0,0,1,.85.57,5.16,5.16,0,0,1,.32,1,1.89,1.89,0,0,0,.41.73,1,1,0,0,0,.89.22c.08,0,0-.15,0-.14Z"/><path class="cls-14" d="M541.53,86.64a11.77,11.77,0,0,1-.81-1.58,1.94,1.94,0,0,1,.18-2,1.2,1.2,0,0,1,1.17-.41c.08,0,.12-.11,0-.14a1.47,1.47,0,0,0-1.68,1.23,3.19,3.19,0,0,0,.47,2c.16.32.33.64.52.95a.07.07,0,1,0,.12-.07Z"/><path class="cls-14" d="M544.68,85a.7.7,0,0,1-.67-.1,1.13,1.13,0,0,1-.32-.48c-.07-.19-.09-.39-.14-.58a2.24,2.24,0,0,0-.39-.77,1.67,1.67,0,0,0-.55-.44c-.08,0-.15.08-.07.12a1.82,1.82,0,0,1,.91,1.26,3.29,3.29,0,0,0,.14.54,1.13,1.13,0,0,0,.36.48.79.79,0,0,0,.76.1c.09,0,0-.16,0-.13Z"/><path class="cls-14" d="M540.68,86c-.15-.38-.29-.77-.41-1.17a2.34,2.34,0,0,1-.13-1.08,2.08,2.08,0,0,1,1.18-1.46c.08,0,0-.16-.07-.12a2.24,2.24,0,0,0-1.11,1.1A1.86,1.86,0,0,0,540,84a2.85,2.85,0,0,0,.19.92,11.42,11.42,0,0,0,.39,1.12c0,.08.17,0,.13,0Z"/><path class="cls-14" d="M541.72,82.2a1.53,1.53,0,0,1,1.63.74,6.53,6.53,0,0,1,.47,1.08c.11.29.2.58.5.72.08,0,.15-.08.07-.12a.71.71,0,0,1-.32-.34c-.08-.18-.14-.38-.22-.58a3.6,3.6,0,0,0-.49-1,1.77,1.77,0,0,0-.68-.56,1.53,1.53,0,0,0-1-.09c-.09,0-.05.16,0,.13Z"/><path class="cls-14" d="M539.83,84.46a2.36,2.36,0,0,1,0-1.21,2,2,0,0,1,.48-.79,2.69,2.69,0,0,1,.62-.44,1.93,1.93,0,0,1,.85-.23,1.67,1.67,0,0,1,.8.1c.08,0,.15-.08.07-.12a1.4,1.4,0,0,0-.73-.12,2.32,2.32,0,0,0-.94.18,2.4,2.4,0,0,0-1.24,1.25,2.54,2.54,0,0,0-.06,1.42c0,.09.15,0,.14,0Z"/><path class="cls-14" d="M542.91,82.05a2.4,2.4,0,0,1,.89,1.12c0,.08.17,0,.13,0a2.63,2.63,0,0,0-.95-1.21c-.08,0-.15.08-.07.13Z"/><path class="cls-14" d="M544,83.58a1.31,1.31,0,0,0,.71,1c.08,0,.12-.1,0-.14a1.16,1.16,0,0,1-.6-.86.07.07,0,0,0-.14,0Z"/><path class="cls-14" d="M539.79,85c.17.5.3,1,.49,1.51,0,.08.17,0,.13,0-.19-.49-.32-1-.48-1.51,0-.08-.17,0-.14,0Z"/><path class="cls-14" d="M540.71,86.37A2.7,2.7,0,0,1,541,87c0,.09.15,0,.13,0a3,3,0,0,0-.26-.64c0-.08-.17,0-.12.07Z"/><path class="cls-14" d="M540.89,87.57c.57,0,.83-.63.83-.63a2.42,2.42,0,0,0,.57.45,1.72,1.72,0,0,0,.84.14c.09,0,.09-.15,0-.14a1.52,1.52,0,0,1-.79-.13,1.9,1.9,0,0,1-.59-.5c0-.05-.1,0-.11,0-.11.28-.42.66-.75.64-.09,0-.09.13,0,.14Z"/><path class="cls-14" d="M541.75,87.39a1.35,1.35,0,0,0,1.31.46c.09,0,.09-.15,0-.14a1.21,1.21,0,0,1-1.19-.39c0-.07-.17,0-.12.07Z"/><rect class="cls-24" x="541.53" y="93.37" width="37.74" height="20.23" rx="0.66" ry="0.66"/><circle class="cls-19" cx="541.83" cy="93.47" r="1.83"/><path class="cls-14" d="M541.66,93.21a1,1,0,0,0,.55.9.71.71,0,0,0,.35.07s0-.06,0-.06a.7.7,0,0,1-.54-.21.94.94,0,0,1-.3-.7,0,0,0,1,0-.06,0Z"/><path class="cls-14" d="M542.35,94.29a1,1,0,0,1-.35-.14,1.26,1.26,0,0,1-.48-1,.26.26,0,0,1,.07-.19.14.14,0,0,1,.19,0c.1.07.12.23.15.35a1,1,0,0,0,.27.55.54.54,0,0,0,.52.08s0-.07,0-.06a.47.47,0,0,1-.47-.07,1.21,1.21,0,0,1-.3-.68c0-.12-.1-.25-.23-.26a.25.25,0,0,0-.24.22.91.91,0,0,0,0,.4,1.49,1.49,0,0,0,.17.36,1.13,1.13,0,0,0,.26.31,1,1,0,0,0,.41.18s0,0,0-.06Z"/><path class="cls-14" d="M542.71,93.73a.33.33,0,0,1-.33-.1.82.82,0,0,1-.15-.33c-.06-.27-.2-.64-.54-.6a.48.48,0,0,0-.34.24.69.69,0,0,0-.06.47,1.32,1.32,0,0,0,.22.5l.15.25a.73.73,0,0,0,.64.29,0,0,0,0,0,0-.06.66.66,0,0,1-.57-.24,1,1,0,0,1-.11-.17,2.12,2.12,0,0,1-.25-.47.72.72,0,0,1,0-.48.41.41,0,0,1,.35-.27.39.39,0,0,1,.35.23,2,2,0,0,1,.13.41.67.67,0,0,0,.16.3.46.46,0,0,0,.36.09s0-.06,0-.06Z"/><path class="cls-14" d="M541.57,94.24a4,4,0,0,1-.34-.65.79.79,0,0,1,.08-.81.48.48,0,0,1,.47-.17s.05,0,0-.06a.6.6,0,0,0-.69.5,1.35,1.35,0,0,0,.19.83c.07.13.14.26.22.39s.06,0,.05,0Z"/><path class="cls-14" d="M542.85,93.58a.31.31,0,0,1-.28,0,.63.63,0,0,1-.13-.2,2.1,2.1,0,0,0-.06-.24.89.89,0,0,0-.15-.31.68.68,0,0,0-.23-.18s-.06,0,0,0a.72.72,0,0,1,.37.51,1.41,1.41,0,0,0,.06.22.5.5,0,0,0,.15.2.31.31,0,0,0,.31,0s0-.07,0,0Z"/><path class="cls-14" d="M541.22,94c-.06-.15-.12-.31-.17-.48a.94.94,0,0,1,0-.44.82.82,0,0,1,.48-.59s0-.06,0,0a.94.94,0,0,0-.45.45.73.73,0,0,0-.07.3,1.51,1.51,0,0,0,.07.37c0,.16.1.31.16.46s.07,0,.06,0Z"/><path class="cls-14" d="M541.64,92.43a.61.61,0,0,1,.66.3,2.19,2.19,0,0,1,.2.44c0,.12.08.24.2.29s.06,0,0,0a.24.24,0,0,1-.13-.13,2.34,2.34,0,0,1-.09-.24,1.66,1.66,0,0,0-.2-.4.7.7,0,0,0-.28-.23.68.68,0,0,0-.4,0s0,.07,0,.06Z"/><path class="cls-14" d="M540.87,93.35a.9.9,0,0,1,0-.49.78.78,0,0,1,.19-.33,1.44,1.44,0,0,1,.25-.18.86.86,0,0,1,.35-.09.75.75,0,0,1,.33,0s.06,0,0,0a.71.71,0,0,0-.29,0,1.29,1.29,0,0,0-.39.08,1,1,0,0,0-.5.51,1,1,0,0,0,0,.57s.06,0,0,0Z"/><path class="cls-14" d="M542.12,92.37a1,1,0,0,1,.37.45s.07,0,0,0a1,1,0,0,0-.39-.49s-.06,0,0,.05Z"/><path class="cls-14" d="M542.56,93a.54.54,0,0,0,.28.39s0,0,0-.06a.49.49,0,0,1-.25-.34s-.06,0-.05,0Z"/><path class="cls-14" d="M540.86,93.58a6.4,6.4,0,0,0,.2.62,0,0,0,1,0,.05,0c-.08-.2-.13-.41-.2-.61,0,0-.07,0,0,0Z"/><path class="cls-14" d="M541.23,94.13a1,1,0,0,1,.1.24s.06,0,.06,0a1.19,1.19,0,0,0-.11-.26,0,0,0,1,0,0,0Z"/><path class="cls-14" d="M541.3,94.61a.39.39,0,0,0,.34-.25,1.18,1.18,0,0,0,.23.18.83.83,0,0,0,.35.06s0-.06,0-.06a.74.74,0,0,1-.33-.05.77.77,0,0,1-.23-.21,0,0,0,0,0,0,0c-.05.12-.17.27-.31.27s0,0,0,0Z"/><path class="cls-14" d="M541.65,94.54a.58.58,0,0,0,.54.19s0-.06,0-.06a.5.5,0,0,1-.49-.16s-.07,0-.05,0Z"/><rect class="cls-5" x="543.66" y="95.3" width="31.99" height="1.61"/><rect class="cls-5" x="547.2" y="85.93" width="24.5" height="2.8"/><rect class="cls-17" x="549.62" y="76.11" width="28.47" height="3.25"/><rect class="cls-19" x="543.66" y="97.46" width="13.27" height="0.39"/><rect class="cls-5" x="543.66" y="99.72" width="26.79" height="0.5"/><rect class="cls-5" x="543.66" y="102.86" width="18.26" height="0.5"/><rect class="cls-5" x="543.66" y="104.96" width="28.04" height="0.5"/><rect class="cls-5" x="543.66" y="108.11" width="27.09" height="0.5"/><rect class="cls-5" x="543.66" y="110.21" width="10.74" height="0.5"/><rect class="cls-24" x="541.53" y="116.42" width="37.74" height="20.23" rx="0.66" ry="0.66"/><circle class="cls-19" cx="541.83" cy="116.52" r="1.83"/><path class="cls-25" d="M542,116.25a1,1,0,0,1-.56.91.65.65,0,0,1-.34.06s0-.06,0,0a.78.78,0,0,0,.54-.21,1,1,0,0,0,.3-.71s.06,0,.06,0Z"/><path class="cls-25" d="M541.32,117.34a1.17,1.17,0,0,0,.35-.14,1.09,1.09,0,0,0,.23-.25,1.18,1.18,0,0,0,.25-.74.22.22,0,0,0-.08-.18.14.14,0,0,0-.18,0c-.11.08-.12.24-.15.36a1,1,0,0,1-.27.54.56.56,0,0,1-.53.09s0-.07,0-.06a.49.49,0,0,0,.47-.07,1.28,1.28,0,0,0,.3-.68c0-.12.1-.25.23-.26a.25.25,0,0,1,.24.22.91.91,0,0,1,0,.4,1.17,1.17,0,0,1-.16.36,1,1,0,0,1-.27.31.84.84,0,0,1-.4.17,0,0,0,1,1,0,0Z"/><path class="cls-25" d="M541,116.78a.32.32,0,0,0,.33-.11.73.73,0,0,0,.15-.32c.06-.27.2-.64.54-.6a.47.47,0,0,1,.34.24.69.69,0,0,1,.06.47,1.5,1.5,0,0,1-.22.5,2,2,0,0,1-.16.24.68.68,0,0,1-.63.3,0,0,0,1,1,0-.06.66.66,0,0,0,.57-.24l.11-.17a2.08,2.08,0,0,0,.24-.47.69.69,0,0,0,0-.49.42.42,0,0,0-.35-.26.37.37,0,0,0-.35.23,2,2,0,0,0-.13.41.66.66,0,0,1-.17.29.39.39,0,0,1-.36.09s0-.06,0,0Z"/><path class="cls-25" d="M542.1,117.28a4.83,4.83,0,0,0,.33-.64.78.78,0,0,0-.07-.82.5.5,0,0,0-.47-.17s-.06,0,0-.05a.59.59,0,0,1,.68.5,1.31,1.31,0,0,1-.18.82,3.61,3.61,0,0,1-.22.39,0,0,0,1,1,0,0Z"/><path class="cls-25" d="M540.82,116.62a.26.26,0,0,0,.27,0,.41.41,0,0,0,.13-.19,2.1,2.1,0,0,0,.06-.24.92.92,0,0,1,.16-.31.63.63,0,0,1,.22-.18s.07,0,0,0a.75.75,0,0,0-.37.51.79.79,0,0,1-.06.22.46.46,0,0,1-.14.2.34.34,0,0,1-.31,0s0-.07,0-.06Z"/><path class="cls-25" d="M542.45,117a4.5,4.5,0,0,0,.16-.48.83.83,0,0,0,.06-.44.84.84,0,0,0-.48-.59s0-.06,0,0a.94.94,0,0,1,.45.45.73.73,0,0,1,.07.3,1.23,1.23,0,0,1-.08.37,4.19,4.19,0,0,1-.16.46s-.07,0,0,0Z"/><path class="cls-25" d="M542,115.48a.62.62,0,0,0-.66.3,2.92,2.92,0,0,0-.19.44.46.46,0,0,1-.2.29s-.07,0,0-.05a.29.29,0,0,0,.13-.14l.09-.23a1.36,1.36,0,0,1,.2-.4.67.67,0,0,1,.27-.23.64.64,0,0,1,.41,0s0,.07,0,.06Z"/><path class="cls-25" d="M542.8,116.4a1.06,1.06,0,0,0,0-.5.72.72,0,0,0-.2-.32,1.14,1.14,0,0,0-.25-.18.78.78,0,0,0-.34-.09.63.63,0,0,0-.33,0s-.06,0,0,0a.61.61,0,0,1,.3,0,.84.84,0,0,1,.38.08.94.94,0,0,1,.51.51,1,1,0,0,1,0,.57s-.06,0-.05,0Z"/><path class="cls-25" d="M541.54,115.41a1,1,0,0,0-.36.46s-.07,0,0,0a1,1,0,0,1,.38-.49s.06,0,0,0Z"/><path class="cls-25" d="M541.11,116a.55.55,0,0,1-.29.39s-.05,0,0-.06a.47.47,0,0,0,.24-.35s.07,0,.06,0Z"/><path class="cls-25" d="M542.81,116.63c-.07.21-.12.42-.2.62,0,0-.07,0-.05,0,.08-.2.13-.41.2-.61a0,0,0,1,1,0,0Z"/><path class="cls-25" d="M542.44,117.17a.77.77,0,0,0-.1.25s-.07,0-.06,0a1.28,1.28,0,0,1,.11-.27s.07,0,.05,0Z"/><path class="cls-25" d="M542.36,117.66c-.23,0-.34-.26-.34-.26a1,1,0,0,1-.22.19.7.7,0,0,1-.35,0s0-.06,0,0a.7.7,0,0,0,.32-.06.59.59,0,0,0,.24-.2s0,0,0,0,.17.27.3.26a0,0,0,0,1,0,.06Z"/><path class="cls-25" d="M542,117.59a.55.55,0,0,1-.53.19s0-.07,0-.06a.5.5,0,0,0,.48-.16s.08,0,0,0Z"/><rect class="cls-5" x="543.66" y="118.34" width="31.99" height="1.61"/><rect class="cls-19" x="543.66" y="120.51" width="13.27" height="0.39"/><rect class="cls-5" x="543.66" y="122.76" width="26.79" height="0.5"/><rect class="cls-5" x="543.66" y="125.91" width="18.26" height="0.5"/><rect class="cls-5" x="543.66" y="128.01" width="28.04" height="0.5"/><rect class="cls-5" x="543.66" y="131.16" width="27.09" height="0.5"/><rect class="cls-5" x="543.66" y="133.26" width="10.74" height="0.5"/></g><line class="cls-26" x1="-30.5" y1="472.5" x2="630.5" y2="-22.5"/></g></svg>